<?xml version="1.0" standalone="no"?>
<!DOCTYPE svg PUBLIC "-//W3C//DTD SVG 20010904//EN"
 "http://www.w3.org/TR/2001/REC-SVG-20010904/DTD/svg10.dtd">
<svg version="1.0" xmlns="http://www.w3.org/2000/svg"
 width="366.000000pt" height="366.000000pt" viewBox="0 0 366.000000 366.000000"
 preserveAspectRatio="xMidYMid meet">
<metadata>
Created by potrace 1.14, written by Peter Selinger 2001-2017
</metadata>
<g transform="translate(0.000000,366.000000) scale(0.100000,-0.100000)"
fill="#000000" stroke="none">
<path d="M1770 3613 c-836 -36 -1526 -624 -1689 -1439 -25 -126 -34 -221 -33
-359 1 -116 6 -175 28 -305 30 -187 118 -420 226 -598 29 -48 56 -91 60 -97 4
-5 27 -35 50 -65 176 -229 408 -417 658 -533 165 -76 344 -130 505 -152 22 -3
56 -8 75 -11 44 -6 286 -6 360 1 79 7 242 41 337 69 556 167 1001 606 1182
1166 12 36 23 74 26 85 51 239 57 293 56 465 -1 133 -4 166 -27 310 -9 63 -55
224 -89 315 -234 631 -853 1096 -1517 1141 -134 9 -147 9 -208 7z m240 -77
c56 -6 63 -7 172 -27 147 -26 411 -131 547 -217 282 -179 503 -423 641 -707
50 -104 103 -245 121 -324 17 -73 19 -84 25 -121 3 -19 7 -41 10 -49 22 -65
22 -483 -1 -521 -1 -3 -6 -26 -9 -51 -3 -25 -15 -79 -26 -120 -11 -41 -22 -81
-24 -89 -2 -8 -15 -44 -29 -80 -153 -403 -442 -728 -822 -925 -644 -334 -1440
-220 -1967 283 -257 245 -442 583 -502 917 -3 17 -8 41 -11 54 -30 152 -24
431 15 621 129 633 626 1152 1254 1310 105 26 142 33 246 46 25 3 46 7 47 8 5
4 261 -2 313 -8z"/>
<path d="M1329 3193 c-1 -21 -3 -47 -5 -58 -13 -74 -15 -145 -5 -145 6 0 11
10 12 23 0 12 2 30 4 39 2 9 6 36 9 59 7 50 13 59 22 33 4 -10 19 -44 32 -74
14 -30 26 -58 26 -62 4 -25 18 -12 42 39 15 32 28 60 29 63 0 3 6 14 12 25 14
24 25 15 27 -22 1 -16 5 -33 9 -40 4 -6 3 -15 -3 -18 -8 -5 -8 -11 0 -20 6 -7
9 -17 8 -23 -2 -5 2 -10 7 -11 10 -1 12 88 3 105 -2 5 -6 27 -7 48 -2 22 -6
48 -10 60 -8 19 -9 18 -25 -12 -9 -17 -14 -32 -11 -32 3 0 -6 -18 -19 -39 -14
-21 -23 -40 -21 -43 2 -2 -4 -13 -13 -26 -17 -22 -18 -22 -62 73 -24 52 -48
95 -52 95 -4 0 -9 -17 -9 -37z"/>
<path d="M1619 3228 c-1 -4 -1 -189 0 -215 1 -28 17 -30 24 -3 3 11 2 20 -2
20 -7 0 -7 34 -1 50 6 14 4 47 -2 61 -15 33 5 27 41 -12 20 -23 48 -54 64 -70
15 -16 27 -34 27 -38 0 -7 23 -21 33 -21 2 0 0 207 -2 223 -1 4 -6 7 -12 7 -7
0 -10 -14 -7 -35 2 -19 0 -35 -4 -35 -4 0 -3 -11 2 -24 5 -15 5 -27 -3 -35 -8
-8 -8 -11 1 -11 6 0 9 -7 5 -16 -6 -17 -14 -10 -125 116 -21 23 -38 40 -39 38z"/>
<path d="M1858 3200 c-3 -17 -1 -33 4 -36 4 -3 4 -13 -2 -23 -5 -10 -6 -21 -3
-25 9 -8 10 -56 2 -56 -10 0 5 -61 15 -63 6 -1 10 47 10 116 1 81 -2 117 -10
117 -7 0 -14 -14 -16 -30z"/>
<path d="M1939 3198 c-1 -18 -2 -42 -3 -53 0 -11 2 -30 6 -42 4 -13 4 -23 0
-23 -5 0 -6 -19 -3 -42 l6 -43 50 -1 c96 -3 146 43 139 127 -7 76 -50 109
-145 109 -48 0 -49 0 -50 -32z m144 -16 c22 -21 27 -34 27 -73 0 -62 -28 -91
-94 -95 -25 -2 -47 0 -47 4 -1 4 -3 30 -4 59 -1 28 -5 59 -8 67 -4 9 -3 16 2
16 4 0 6 12 3 26 -5 25 -3 26 44 23 36 -2 56 -9 77 -27z"/>
<path d="M2180 3116 c0 -66 4 -117 10 -121 12 -7 12 -6 12 115 0 121 0 120
-12 120 -6 0 -10 -45 -10 -114z"/>
<path d="M2264 3113 l1 -118 54 -2 c30 -1 61 2 70 7 18 11 9 12 -65 12 l-41 0
1 49 1 49 52 0 c50 0 88 19 41 21 -98 4 -92 1 -93 42 l-1 37 52 0 c29 0 56 5
59 10 4 6 -20 10 -63 10 l-70 0 2 -117z"/>
<path d="M2410 3220 c0 -5 13 -10 28 -10 l28 0 0 -107 c-1 -76 3 -108 12 -111
9 -3 12 23 12 107 l0 111 25 0 c14 0 25 5 25 10 0 6 -28 10 -65 10 -37 0 -65
-4 -65 -10z"/>
<path d="M1145 3205 c6 -2 23 -6 38 -9 38 -9 66 -57 62 -108 -2 -23 -10 -45
-17 -49 -7 -5 -9 -9 -3 -9 19 0 -11 -19 -39 -24 -28 -5 -59 6 -82 29 -30 30
-16 155 17 155 7 0 10 3 7 6 -12 12 -46 -17 -57 -47 -26 -76 -7 -131 51 -148
74 -23 131 7 146 76 12 52 -13 117 -49 126 -24 7 -93 8 -74 2z"/>
<path d="M2405 2666 c-6 -7 -70 -86 -143 -176 -164 -200 -222 -282 -228 -318
-2 -15 2 -50 11 -77 l15 -50 -95 -140 c-52 -77 -105 -152 -117 -168 l-23 -27
-110 160 c-60 88 -111 167 -113 176 -2 8 1 20 7 27 20 25 24 111 7 175 -25
100 -62 161 -150 247 -91 90 -186 145 -263 152 -67 7 -86 -16 -91 -106 -8
-135 65 -317 168 -420 71 -70 136 -103 217 -110 l62 -6 120 -169 121 -169 -37
-51 c-158 -219 -233 -307 -354 -412 -60 -53 -119 -109 -131 -126 -20 -29 -21
-35 -10 -87 13 -63 37 -89 79 -85 15 1 40 2 55 3 49 2 76 44 139 216 32 87 68
159 121 245 58 94 163 250 168 250 6 -1 130 -192 190 -295 26 -44 71 -142 101
-219 62 -161 86 -192 153 -197 74 -6 87 1 107 58 26 78 14 109 -73 185 -180
158 -268 256 -407 455 l-43 62 124 173 123 172 52 2 c62 1 92 19 138 82 58 79
275 447 275 466 0 10 -68 -78 -151 -195 -173 -245 -170 -241 -187 -230 -9 5
32 73 148 241 88 128 157 236 154 239 -3 3 -8 0 -12 -6 -4 -6 -18 -25 -32 -43
-13 -17 -31 -42 -40 -55 -77 -119 -248 -344 -259 -342 -8 1 -15 5 -15 9 -1 3
69 109 154 234 167 246 166 244 153 244 -4 0 -80 -101 -168 -224 -88 -124
-165 -227 -172 -230 -36 -15 -5 42 124 229 80 116 149 218 154 228 11 20 -2
23 -16 3z"/>
<path d="M1269 691 c21 -14 23 -159 2 -171 -11 -6 10 -9 62 -10 42 0 77 3 77
8 0 4 -22 5 -50 4 -31 -3 -50 0 -51 7 -1 6 -1 22 -1 36 0 14 0 29 1 34 1 5 19
7 41 5 34 -4 40 -2 40 13 0 12 -3 14 -8 6 -6 -10 -19 -11 -72 -4 -13 2 -4 67
10 73 8 4 -2 7 -25 7 -27 1 -35 -2 -26 -8z"/>
<path d="M1340 696 c0 -2 14 -6 30 -8 17 -3 30 -1 30 4 0 4 -13 8 -30 8 -16 0
-30 -2 -30 -4z"/>
<path d="M1478 693 c7 -3 16 -2 19 1 4 3 -2 6 -13 5 -11 0 -14 -3 -6 -6z"/>
<path d="M1510 693 c0 -5 9 -14 20 -21 11 -7 20 -8 20 -2 0 5 -9 14 -20 20
-11 6 -20 7 -20 3z"/>
<path d="M1576 691 c-4 -5 11 -7 33 -4 l38 5 0 -85 c1 -71 -2 -87 -16 -90 -9
-3 4 -5 29 -5 25 0 37 2 28 5 -15 4 -18 17 -18 88 l0 84 43 4 c23 2 3 4 -45 5
-48 1 -89 -2 -92 -7z"/>
<path d="M1923 693 c-7 -2 -13 -9 -13 -14 0 -4 7 -6 15 -3 8 4 26 3 39 0 21
-5 23 -9 16 -44 -4 -21 -10 -45 -14 -53 -4 -8 1 -3 13 11 24 30 30 58 17 88
-9 21 -41 28 -73 15z"/>
<path d="M2066 689 c2 -4 -4 -12 -13 -18 -10 -6 -13 -11 -7 -11 6 0 18 8 27
18 14 15 15 19 2 19 -8 0 -12 -4 -9 -8z"/>
<path d="M2113 689 c9 -5 17 -17 17 -24 0 -8 4 -15 8 -15 11 0 9 -101 -2 -120
-6 -10 -2 -9 10 3 41 39 15 168 -34 167 -16 -1 -15 -2 1 -11z"/>
<path d="M2204 691 c16 -6 19 -18 18 -77 0 -94 0 -92 -19 -97 -10 -3 2 -5 27
-5 25 0 38 2 30 6 -12 5 -15 25 -15 87 0 44 4 83 10 87 5 4 -8 7 -30 7 -28 0
-34 -3 -21 -8z"/>
<path d="M2350 693 c30 -7 52 -47 52 -93 0 -22 3 -42 8 -45 15 -9 5 112 -11
127 -8 7 -26 14 -42 14 -17 1 -20 0 -7 -3z"/>
<path d="M1444 676 c-19 -21 11 -76 46 -84 39 -9 55 -54 24 -66 -27 -11 -54
-7 -60 9 -8 19 -21 19 -21 0 0 -30 91 -31 109 -2 24 37 -19 95 -64 88 -4 0
-10 11 -14 27 -3 15 -6 30 -7 34 -1 3 -7 1 -13 -6z"/>
<path d="M2305 667 c-9 -10 -12 -69 -7 -114 3 -21 33 -43 59 -43 30 0 28 6 -2
12 -30 5 -42 36 -40 101 0 31 1 57 1 57 -1 -1 -6 -6 -11 -13z"/>
<path d="M2039 635 c-2 -23 -1 -55 1 -57 1 -2 3 -11 5 -21 6 -30 26 -47 54
-46 l26 1 -26 9 c-28 10 -44 49 -41 102 1 15 -2 27 -8 27 -5 0 -10 -7 -11 -15z"/>
<path d="M1920 535 l-34 -25 62 0 c34 0 62 4 62 9 0 5 -18 8 -40 6 -44 -4 -49
1 -22 21 9 7 14 14 11 14 -3 0 -20 -11 -39 -25z"/>
<path d="M2393 535 c0 -8 4 -12 9 -9 5 3 6 10 3 15 -9 13 -12 11 -12 -6z"/>
<path d="M1770 520 c0 -5 5 -10 10 -10 6 0 10 5 10 10 0 6 -4 10 -10 10 -5 0
-10 -4 -10 -10z"/>
</g>
</svg>
